HIERARCHY
ROOT Hips
{
	OFFSET 0.000000 0.000000 0.000000
	CHANNELS 6 Xposition Yposition Zposition Xrotation Yrotation Zrotation
	JOINT LeftUpLeg_virtual
	{
		OFFSET 0.000000 0.000000 0.000000
		CHANNELS 3 Xrotation Yrotation Zrotation
		JOINT LeftUpLeg
		{
			OFFSET 10.205400 -3.823500 0.155100
			CHANNELS 3 Xrotation Yrotation Zrotation
			JOINT LeftLeg
			{
				OFFSET 0.708757 -12.982077 0.567790
				CHANNELS 3 Xrotation Yrotation Zrotation
				JOINT LeftFoot
				{
					OFFSET -0.708756 -10.717838 -2.184338
					CHANNELS 3 Xrotation Yrotation Zrotation
					JOINT LeftToeBase
					{
						OFFSET 0.108149 -7.191104 7.560241
						CHANNELS 3 Xrotation Yrotation Zrotation
						JOINT LeftToe_End
						{
							OFFSET 0.070230 0.081724 4.490308
							CHANNELS 3 Xrotation Yrotation Zrotation
							End Site
							{
								OFFSET 0 0 0
							}
						}
					}
				}
			}
		}
	}
	JOINT RightUpLeg_virtual
	{
		OFFSET 0.000000 0.000000 0.000000
		CHANNELS 3 Xrotation Yrotation Zrotation
		JOINT RightUpLeg
		{
			OFFSET -10.205400 -3.823500 0.005500
			CHANNELS 3 Xrotation Yrotation Zrotation
			JOINT RightLeg
			{
				OFFSET -0.708756 -12.982134 0.610632
				CHANNELS 3 Xrotation Yrotation Zrotation
				JOINT RightFoot
				{
					OFFSET 0.708754 -10.717769 -1.945823
					CHANNELS 3 Xrotation Yrotation Zrotation
					JOINT RightToeBase
					{
						OFFSET -0.108140 -7.191069 7.372968
						CHANNELS 3 Xrotation Yrotation Zrotation
						JOINT RightToe_End
						{
							OFFSET -0.070227 0.081735 4.479403
							CHANNELS 3 Xrotation Yrotation Zrotation
							End Site
							{
								OFFSET 0 0 0
							}
						}
					}
				}
			}
		}
	}
	JOINT Spine_virtual
	{
		OFFSET 0.000000 0.000000 0.000000
		CHANNELS 3 Xrotation Yrotation Zrotation
		JOINT Spine
		{
			OFFSET 0.000000 6.876099 0.125700
			CHANNELS 3 Xrotation Yrotation Zrotation
			JOINT Spine1
			{
				OFFSET 0.000000 5.730043 0.104720
				CHANNELS 3 Xrotation Yrotation Zrotation
				JOINT Spine1_split
				{
					OFFSET 0.000000 5.730043 0.104720
					CHANNELS 3 Xrotation Yrotation Zrotation
					JOINT Spine2
					{
						OFFSET 0.000000 5.730043 0.104720
						CHANNELS 3 Xrotation Yrotation Zrotation
						JOINT Neck_virtual
						{
							OFFSET 0.000000 0.000000 0.000000
							CHANNELS 3 Xrotation Yrotation Zrotation
							JOINT Neck
							{
								OFFSET 0.000000 10.314075 0.188496
								CHANNELS 3 Xrotation Yrotation Zrotation
								JOINT Head
								{
									OFFSET 0.000000 7.643700 -2.377400
									CHANNELS 3 Xrotation Yrotation Zrotation
									JOINT HeadTop_End
									{
										OFFSET 0.000000 43.788605 -13.619600
										CHANNELS 3 Xrotation Yrotation Zrotation
										End Site
										{
											OFFSET 0 0 0
										}
									}
								}
							}
						}
						JOINT LeftShoulder_virtual
						{
							OFFSET 0.000000 0.000000 0.000000
							CHANNELS 3 Xrotation Yrotation Zrotation
							JOINT LeftShoulder
							{
								OFFSET 2.196100 4.412489 0.087492
								CHANNELS 3 Xrotation Yrotation Zrotation
								JOINT LeftShoulder_split
								{
									OFFSET 2.196100 4.412489 0.087492
									CHANNELS 3 Xrotation Yrotation Zrotation
									JOINT LeftArm
									{
										OFFSET 8.771219 -2.981674 -0.026999
										CHANNELS 3 Xrotation Yrotation Zrotation
										JOINT LeftForeArm
										{
											OFFSET 8.512804 0.000000 -0.000000
											CHANNELS 3 Xrotation Yrotation Zrotation
											JOINT LeftHand
											{
												OFFSET 18.484802 0.000000 -0.000000
												CHANNELS 3 Xrotation Yrotation Zrotation
												End Site
												{
													OFFSET 0 0 0
												}
											}
										}
									}
								}
							}
						}
						JOINT RightShoulder_virtual
						{
							OFFSET 0.000000 0.000000 0.000000
							CHANNELS 3 Xrotation Yrotation Zrotation
							JOINT RightShoulder
							{
								OFFSET -2.196100 4.412496 0.070690
								CHANNELS 3 Xrotation Yrotation Zrotation
								JOINT RightShoulder_split
								{
									OFFSET -2.196100 4.412496 0.070690
									CHANNELS 3 Xrotation Yrotation Zrotation
									JOINT RightArm
									{
										OFFSET -8.771282 -2.981682 -0.094208
										CHANNELS 3 Xrotation Yrotation Zrotation
										JOINT RightForeArm
										{
											OFFSET -8.494598 0.000000 0.000000
											CHANNELS 3 Xrotation Yrotation Zrotation
											JOINT RightHand
											{
												OFFSET -18.483803 0.000000 0.000001
												CHANNELS 3 Xrotation Yrotation Zrotation
												End Site
												{
													OFFSET 0 0 0
												}
											}
										}
									}
								}
							}
						}
					}
				}
			}
		}
	}
}
MOTION
Frames: 6
Frame Time: 0.03333333
1.854873 64.242859 -10.289938 0.000000 0.000000 0.000000 4.374167 -7.538641 1.613724 -95.473040 7.689265 21.938928 97.002422 4.039616 6.853947 3.655435 3.164106 -30.564987 0.854878 -0.841030 11.093189 0.000000 0.000000 0.000000 7.220021 -13.725081 1.478177 -103.681753 21.575541 -11.961715 115.344246 -11.552812 -5.230203 21.267548 -6.129987 32.008732 6.719709 8.692738 6.082571 0.000000 0.000000 0.000000 10.137386 -12.474540 0.666653 4.557971 -1.667307 0.059337 11.111342 -0.954678 -0.546865 1.597622 -3.431814 2.770630 0.000000 0.000000 0.000000 13.405090 -1.046639 -0.426626 -22.850499 0.724791 -2.080153 0.740147 -4.386850 1.212795 0.000000 0.000000 0.000000 13.136526 -1.070732 -0.799846 1.055243 -14.284024 27.023087 -0.157120 8.718287 -7.609042 -59.576270 -22.081534 -12.451078 30.824470 -70.472150 55.121754 0.000000 0.000000 0.000000 12.757076 -0.656194 -0.391516 2.967816 9.520604 -6.730192 7.166233 9.858708 1.157415 -75.857119 35.985589 23.024487 -12.514374 75.857474 -27.528654 0.000000 0.000000 0.000000 
2.029791 63.992744 -11.299494 0.000000 0.000000 0.000000 3.462637 -9.162606 1.919732 -98.167700 3.833051 19.805433 95.730395 1.676510 3.909137 3.615669 6.604939 -30.463009 3.300790 -1.585677 10.160974 0.000000 0.000000 0.000000 6.126418 -14.148618 1.945287 -103.343904 16.323066 -13.292239 108.972636 -7.011335 -6.417581 20.256584 -4.162124 35.609738 2.488925 6.612583 2.630899 0.000000 0.000000 0.000000 9.391979 -13.315240 0.579888 5.132575 -1.676301 0.163209 14.309311 -0.661588 -0.588641 1.983966 -2.711746 3.052534 0.000000 0.000000 0.000000 16.356889 -0.571306 -0.615556 -24.370776 1.786901 -1.715395 3.364018 -5.453227 3.292492 0.000000 0.000000 0.000000 16.234952 -0.672195 -1.111783 2.584652 -16.963719 29.699414 -0.753059 5.284570 -6.802757 -59.543807 -17.834560 -9.977951 16.966601 -65.788806 46.640592 0.000000 0.000000 0.000000 15.822036 -0.130275 -0.572122 3.684040 10.523604 -8.538886 8.628252 10.020347 0.070241 -84.079595 37.234742 26.281407 -30.966940 76.332869 -10.766285 0.000000 0.000000 0.000000 
2.064965 63.893234 -12.106688 0.000000 0.000000 0.000000 2.787686 -10.019492 2.325447 -97.791718 1.472738 16.873791 88.619710 -1.270921 2.174678 3.494858 9.145626 -28.116537 4.647441 -2.285422 8.419701 0.000000 0.000000 0.000000 5.371023 -13.488326 2.455059 -100.616118 9.421116 -14.334728 98.162482 -2.506671 -6.913982 17.860904 -2.226788 35.616216 -0.199332 5.969831 -0.352882 0.000000 0.000000 0.000000 8.582901 -13.940481 0.542355 5.217495 -1.299140 0.415968 17.304802 -0.265458 -0.716036 2.152420 -2.671116 3.065877 0.000000 0.000000 0.000000 19.078125 0.047383 -0.868746 -24.802782 2.834761 -1.664554 6.791956 -6.711226 5.522197 0.000000 0.000000 0.000000 19.157035 -0.250445 -1.370128 3.901074 -18.754964 31.458219 -1.870406 1.595173 -5.166089 -63.042407 -15.360807 -8.421372 7.332200 -60.015199 42.004953 0.000000 0.000000 0.000000 18.503870 0.467078 -0.707443 4.763555 12.287515 -10.776740 9.830836 10.129596 -0.949905 -90.056031 39.409211 26.762093 -38.892952 71.322898 -4.078332 0.000000 0.000000 0.000000 
1.949920 63.912895 -12.667162 0.000000 0.000000 0.000000 2.072785 -9.632290 2.752845 -94.702431 0.891925 13.604653 76.341414 -4.891524 0.993972 2.873433 10.485958 -23.778979 4.267503 -2.912604 6.310031 0.000000 0.000000 0.000000 4.171731 -12.980042 2.877882 -96.343145 1.577270 -14.882506 83.297333 1.089168 -5.646604 15.303420 -1.276472 31.433190 -1.199955 6.481077 -1.765835 0.000000 0.000000 0.000000 7.613773 -14.434597 0.620546 5.062877 -0.776323 0.725339 19.831453 0.126521 -0.866912 1.519102 -2.090400 2.402730 0.000000 0.000000 0.000000 21.240106 0.673933 -1.122605 -24.037620 3.955842 -2.015328 10.564422 -7.932174 7.554738 0.000000 0.000000 0.000000 21.605323 0.149825 -1.549000 4.782154 -19.372684 32.490858 -2.723597 -1.642908 -3.164596 -68.387071 -14.944635 -6.933598 -0.956537 -53.073507 38.253178 0.000000 0.000000 0.000000 20.555106 0.964748 -0.743218 6.336618 14.246841 -13.879597 10.220080 9.499748 -1.549499 -91.411509 42.112061 23.224872 -38.785912 62.802893 -5.069243 0.000000 0.000000 0.000000 
1.683625 63.776024 -12.961664 0.000000 0.000000 0.000000 0.707002 -8.481521 3.184620 -89.971965 2.363821 10.760152 61.978748 -8.105399 -0.504267 0.172269 11.155952 -15.653100 2.499008 -3.453129 3.926893 0.000000 0.000000 0.000000 2.352750 -12.224497 3.161257 -91.602734 -5.628271 -15.067030 68.187684 4.119531 -3.317667 13.641026 -0.452379 25.727793 -4.096139 7.599770 -1.335827 0.000000 0.000000 0.000000 5.875744 -14.565121 0.921877 4.996163 -0.253794 0.911765 21.649241 0.471481 -0.955511 0.808103 -1.567717 1.426023 0.000000 0.000000 0.000000 22.588429 1.196942 -1.301904 -22.160050 4.949021 -2.778651 14.197387 -8.867230 9.137430 0.000000 0.000000 0.000000 23.410675 0.466868 -1.578204 5.249331 -18.767896 33.261717 -2.758888 -3.289989 -1.658360 -73.726264 -16.561252 -5.857690 -9.528256 -44.837129 33.600033 0.000000 0.000000 0.000000 21.846237 1.283143 -0.683821 8.389327 16.022495 -17.798419 9.936888 8.136523 -1.458018 -87.598720 43.326844 15.456037 -37.952452 54.069181 -6.408598 0.000000 0.000000 0.000000 
1.334221 63.234924 -12.911547 0.000000 0.000000 0.000000 -1.641508 -7.434429 3.600335 -85.347626 5.197844 8.995853 50.130515 -10.826544 -1.970193 -3.855153 10.445112 -5.244462 -1.015901 -3.738830 1.665919 0.000000 0.000000 0.000000 -0.289344 -11.702402 3.302969 -87.535684 -10.936805 -15.524383 58.434194 6.885796 -0.871299 13.646494 0.553527 20.667273 -11.482240 8.716852 0.625515 0.000000 0.000000 0.000000 3.219368 -14.752871 1.453208 5.388148 0.103539 0.836566 22.662189 0.736217 -0.938345 0.330285 -0.935192 0.641212 0.000000 0.000000 0.000000 23.200600 1.514296 -1.363838 -19.472442 5.654308 -3.701274 17.178645 -9.505608 10.135447 0.000000 0.000000 0.000000 24.455151 0.661839 -1.465662 5.300078 -17.263928 33.729506 -2.188575 -3.606443 -1.064720 -76.737353 -18.565108 -4.930740 -17.888855 -36.960360 28.065913 0.000000 0.000000 0.000000 22.386046 1.387569 -0.505670 10.713459 17.108464 -22.607909 9.002290 6.968305 -0.642110 -80.488144 40.604563 5.570624 -38.293391 48.834637 -5.795280 0.000000 0.000000 0.000000 
